<?xml version="1.0" encoding="UTF-8" standalone="no"?>
<svg
   width="1200"
   height="448"
   viewBox="0 0 1200 448"
   fill="none"
   version="1.1"
   id="svg12"
   sodipodi:docname="bull-logo.svg"
   inkscape:version="1.1.1 (3bf5ae0d25, 2021-09-20)"
   xmlns:inkscape="http://www.inkscape.org/namespaces/inkscape"
   xmlns:sodipodi="http://sodipodi.sourceforge.net/DTD/sodipodi-0.dtd"
   xmlns="http://www.w3.org/2000/svg"
   xmlns:svg="http://www.w3.org/2000/svg">
  <defs
     id="defs16" />
  <sodipodi:namedview
     id="namedview14"
     pagecolor="#ffffff"
     bordercolor="#666666"
     borderopacity="1.0"
     inkscape:pageshadow="2"
     inkscape:pageopacity="0.0"
     inkscape:pagecheckerboard="0"
     showgrid="false"
     inkscape:zoom="0.259375"
     inkscape:cx="-963.85542"
     inkscape:cy="-717.10843"
     inkscape:window-width="2560"
     inkscape:window-height="1351"
     inkscape:window-x="0"
     inkscape:window-y="0"
     inkscape:window-maximized="1"
     inkscape:current-layer="svg12" />
  <g
     id="g838"
     transform="translate(76.5,75.7779)">
    <path
       d="m 264.1788,134.1505 c 1.8272,-4.7136 2.846,-9.8132 2.846,-15.1576 0,-23.026 -18.622,-41.794 -41.636,-42.1092 -1.1596,-22.22 -19.5708,-39.8664 -42.128,-39.8664 -12.614,0 -23.9104,5.52 -31.64,14.2644 -7.73,-8.7444 -19.044,-14.2644 -31.64,-14.2644 -22.452,0 -40.8104,17.4888 -42.1104,39.5684 V 25.2593 H 26.0796 v 51.642 h 51.158 c -22.7504,0.6308 -41.0564,19.2584 -41.0564,42.0916 0,5.3444 1.0192,10.4616 2.846,15.1576 -8.3096,7.6932 -13.5272,18.6804 -13.5272,30.8768 0,23.236 18.956,42.1268 42.2336,42.1268 h 45.782 l 17.2696,17.2256 v 41.6708 h 41.6008 v -41.4956 l 17.4628,-17.4184 h 45.6064 c 23.2952,0 42.2336,-18.8904 42.2336,-42.1268 0,-12.1788 -5.218,-23.166 -13.5276,-30.8764 z m -112.5756,16.332 h -22.0656 v -21.9744 h -51.72 v -51.642 h 51.7728 v 51.6068 h 21.9952 v 22.0096 z"
       fill="#ff5539"
       id="path2"
       style="stroke-width:1" />
    <path
       d="m 507.988,152.3401 v -0.3152 c 4.392,-1.77 8.152,-4.4336 11.296,-7.9732 3.128,-3.54 5.428,-7.43 6.904,-11.6532 1.456,-4.2232 2.476,-8.1836 3.056,-11.8812 0.58,-3.6976 0.86,-7.3772 0.86,-11.0224 0,-20.4324 -7.236,-36.782 -21.712,-49.0308 C 493.916,48.2149 475.084,42.0817 451.876,42.0817 H 329.744 V 266.0333 H 456.9 c 23.416,0 42.34,-5.9408 56.76,-17.8216 14.424,-11.8812 21.644,-27.9328 21.644,-48.1724 0,-11.04 -2.512,-21.0808 -7.516,-30.1056 -5.028,-9.0244 -11.596,-14.8772 -19.748,-17.5936 z M 386.328,90.8849 h 61.312 c 8.048,0 14.356,1.9804 18.888,5.9404 4.548,3.9604 6.816,9.0248 6.816,15.1756 0,6.1508 -2.248,11.478 -6.748,15.3332 -4.496,3.8552 -10.82,5.7828 -18.972,5.7828 H 386.312 V 90.9025 Z m 85.68,121.2808 c -4.34,3.9076 -10.736,5.8704 -19.2,5.8704 h -66.48 v -42.6876 h 66.48 c 8.572,0 15,1.91 19.288,5.7128 4.288,3.8028 6.428,8.9896 6.428,15.5608 0,6.5716 -2.176,11.6532 -6.5,15.5612 z"
       fill="#002870"
       id="path4"
       style="stroke-width:1" />
    <path
       d="m 684.844,187.5273 c 0,11.2504 -2.616,20.0648 -7.836,26.4256 -5.236,6.3612 -13.228,9.5328 -23.98,9.5328 -10.752,0 -18.236,-3.1716 -23.68,-9.5328 -5.428,-6.3608 -8.152,-15.1752 -8.152,-26.4256 v -80.0652 h -56.448 v 80.0652 c 0,28.8792 7.012,50.0476 21.012,63.488 14.004,13.4584 36.42,20.1696 67.268,20.1696 30.852,0 51.828,-6.7464 66.408,-20.2572 14.58,-13.4932 21.872,-34.1184 21.872,-61.858 V 107.4273 H 684.86 v 80.0652 z"
       fill="#002870"
       id="path6"
       style="stroke-width:1" />
    <path
       d="m 838.564,215.1273 c -3.6,-3.172 -5.412,-8.096 -5.412,-14.7724 V 42.0817 h -56.584 v 157.0112 c 0,13.4408 1.424,24.6032 4.304,33.47 2.88,8.8672 7.448,15.7188 13.72,20.5728 6.272,4.854 13.508,8.2012 21.716,10.0936 8.204,1.8752 18.408,2.8212 30.656,2.8212 h 42.02 v -46.1396 h -33.396 c -7.728,0 -13.404,-1.5944 -17.004,-4.7664 z"
       fill="#002870"
       id="path8"
       style="stroke-width:1" />
    <path
       d="m 988.084,219.8937 c -7.728,0 -13.404,-1.5948 -17.004,-4.7664 -3.6,-3.172 -5.412,-8.096 -5.412,-14.7724 V 42.0817 h -56.604 v 157.0112 c 0,13.4408 1.44,24.6032 4.324,33.47 2.88,8.8672 7.448,15.7188 13.72,20.5728 6.272,4.854 13.508,8.2012 21.712,10.0936 8.204,1.8752 18.412,2.8212 30.656,2.8212 h 42.024 v -46.1396 h -33.396 z"
       fill="#002870"
       id="path10"
       style="stroke-width:1" />
  </g>
</svg>
