<?xml version="1.0" encoding="UTF-8" standalone="no"?>
<!-- Created with Inkscape (http://www.inkscape.org/) -->

<svg
   width="339.35129mm"
   height="60.494911mm"
   viewBox="0 0 339.35129 60.494911"
   version="1.1"
   id="svg935"
   xmlns="http://www.w3.org/2000/svg"
   xmlns:svg="http://www.w3.org/2000/svg">
  <defs
     id="defs932" />
  <g
     id="layer1"
     transform="translate(132.25296,-72.835019)">
    <path
       style="clip-rule:nonzero;fill:#f35942;fill-opacity:1;fill-rule:nonzero;stroke:none;stroke-width:0.352777"
       d="m 164.08811,72.835019 30.88616,43.010221 c 0.76544,1.02142 2.16834,0.63746 2.16834,-0.38399 V 76.918201 h 5.61655 v 52.326059 h -5.10458 L 159.74894,75.64328 c -1.65886,-2.424324 -2.55228,-2.808261 -4.33919,-2.808261 h -2.4243 c -1.27738,0 -2.17077,0.893445 -2.17077,2.170801 v 56.15329 c 0,1.27738 0.89339,2.17082 2.17077,2.17082 h 9.95571 c 1.27493,0 2.16837,-0.89344 2.16837,-2.17082 V 98.998051 l -4.33917,-5.998078 v 36.244287 h -5.61652 V 77.04618 l 37.77758,53.47544 c 1.65891,2.29637 2.68031,2.80831 4.84868,2.80831 h 7.14742 c 1.27738,0 2.1708,-0.89344 2.1708,-2.17082 V 75.00582 c 0,-1.277356 -0.89342,-2.170801 -2.1708,-2.170801 h -9.82527 c -1.27738,0 -2.17083,0.893445 -2.17083,2.170801 v 31.39562 L 169.83269,72.835019 Z m -153.657883,0 H -1.693828 c -1.2773819,0 -2.1708533,0.893445 -2.1708533,2.170801 v 56.15329 c 0,1.27738 0.8934714,2.17082 2.1708533,2.17082 h 9.9532545 c 1.2773818,0 2.1708005,-0.89344 2.1708005,-2.17082 V 81.513379 H 6.0910867 V 129.24426 H 0.4744853 V 76.918201 H 10.430227 Z M 134.60736,105.63351 H 96.576204 c -4.467145,0 -7.275406,2.93629 -7.275406,7.0195 v 13.65742 c 0,4.08324 2.808261,7.0195 7.275406,7.0195 H 136.9037 c 1.27739,0 2.1708,-0.89344 2.1708,-2.17082 v -9.06233 c 0,-1.27489 -0.89341,-2.16836 -2.1708,-2.16836 h -33.564 v -5.61655 h -4.083187 v 9.69981 h 35.606827 v 5.23258 H 96.576204 c -1.786837,0 -2.93624,-1.14696 -2.93624,-2.93383 v -13.65742 c 0,-1.78684 1.149403,-2.9338 2.93624,-2.9338 h 40.073976 c 1.27492,0 2.16834,-0.89348 2.16834,-2.17083 v -9.059837 c 0,-1.277382 -0.89342,-2.170801 -2.16834,-2.170801 H 96.576204 c -1.786837,0 -2.93624,-1.149403 -2.93624,-2.933779 V 79.854494 c 0,-1.78689 1.149403,-2.936293 2.93624,-2.936293 H 134.9913 v 5.232586 H 99.256513 v 9.571804 h 4.083187 v -5.486109 h 33.564 c 1.27739,0 2.1708,-0.893445 2.1708,-2.1708 v -8.931857 c 0,-1.277382 -0.89341,-2.298806 -2.1708,-2.298806 H 96.576204 c -4.467145,0 -7.275406,2.93624 -7.275406,7.019475 v 13.529469 c 0,4.083156 2.808261,7.016957 7.275406,7.016957 H 134.60736 Z M -23.645645,76.918201 h 6.253956 L -38.194077,129.37222 -59.761931,74.877867 c -0.639922,-1.530932 -1.533367,-2.042848 -3.192225,-2.042848 h -10.465249 c -1.274922,0 -2.040361,0.893445 -2.040361,2.042848 0,0.381503 0.128032,0.893392 0.253524,1.274895 l 22.463786,57.177168 h 5.230124 L -69.973657,76.918201 h 6.126083 l 21.695806,54.624839 c 0.639948,1.53088 1.277382,1.78689 2.808288,1.78689 h 2.296371 c 1.53334,0 2.170774,-0.25601 2.808261,-1.78689 L -12.28703,76.152762 c 0.128005,-0.381503 0.255958,-0.893392 0.255958,-1.274895 0,-1.149403 -0.76544,-2.042848 -2.042795,-2.042848 h -10.337218 c -1.658885,0 -2.552356,0.511916 -3.189764,2.042848 l -13.273537,34.201393 2.424324,5.87256 z m -63.300768,28.715309 h -38.031077 c -4.46715,0 -7.27547,2.93629 -7.27547,7.0195 v 13.65742 c 0,4.08324 2.80832,7.0195 7.27547,7.0195 h 40.327422 c 1.277382,0 2.170853,-0.89344 2.170853,-2.17082 v -9.06233 c 0,-1.27489 -0.893471,-2.16836 -2.170853,-2.16836 H -118.214 v -5.61655 h -4.08569 v 9.69981 h 35.609287 v 5.23258 h -38.287087 c -1.78689,0 -2.93629,-1.14696 -2.93629,-2.93383 v -13.65742 c 0,-1.78684 1.1494,-2.9338 2.93629,-2.9338 h 40.073951 c 1.274921,0 2.168366,-0.89348 2.168366,-2.17083 v -9.059837 c 0,-1.277382 -0.893445,-2.170801 -2.168366,-2.170801 h -40.073951 c -1.78689,0 -2.93629,-1.149403 -2.93629,-2.933779 V 79.854494 c 0,-1.78689 1.1494,-2.936293 2.93629,-2.936293 h 38.41504 v 5.232586 h -35.73724 v 9.571804 h 4.08569 v -5.486109 h 33.563932 c 1.277382,0 2.170853,-0.893445 2.170853,-2.1708 v -8.931857 c 0,-1.277382 -0.893471,-2.298806 -2.170853,-2.298806 h -40.327422 c -4.46715,0 -7.27547,2.93624 -7.27547,7.019475 v 13.529469 c 0,4.083156 2.80832,7.016957 7.27547,7.016957 h 38.031077 z M 33.019531,82.150787 v 33.182533 h 4.211188 V 86.236482 h 15.569829 c 7.65691,0 13.145479,6.89147 13.145479,16.844778 0,9.95569 -5.488569,16.84716 -13.145479,16.84716 H 30.339249 c -1.786863,0 -2.936266,-1.14941 -2.936266,-2.93624 V 79.854494 c 0,-1.78689 1.149403,-2.936293 2.936266,-2.936293 h 22.461299 c 13.40149,0 23.101221,10.977166 23.101221,26.163059 0,15.18833 -9.699731,26.163 -23.101221,26.163 H 23.06379 v 4.08567 h 29.736758 c 15.188327,0 27.565906,-13.01755 27.565906,-30.24867 0,-17.228714 -12.377579,-30.246241 -27.565906,-30.246241 H 30.339249 c -4.467198,0 -7.275459,2.93624 -7.275459,7.019475 v 37.137686 c 0,4.08564 2.808261,7.0195 7.275459,7.0195 h 22.461299 c 9.699731,0 17.612625,-8.93191 17.612625,-20.93042 0,-11.996129 -7.912894,-20.930473 -17.612625,-20.930473 H 33.019531"
       id="path7" />
  </g>
</svg>
